<?xml version="1.0" encoding="UTF-8" standalone="no"?>
<svg xmlns="http://www.w3.org/2000/svg" height="64" width="64" version="1.0" viewBox="0 0 64 64">
  <path d="m 32.078504,15.286522 c 4.070662,-4.408273 8.825304,-6.4129827 14.330497,-5.6363534 5.682133,0.8016224 10.52003,4.8638564 12.240014,10.3390044 1.323496,4.212972 0.774092,8.931455 -0.998216,13.234199 C 54.894313,39.915541 46.748753,49.427997 32.000011,56.078408 17.251287,49.427997 9.105721,39.915541 6.3492312,33.223372 4.576923,28.920628 4.0275257,24.202145 5.3510056,19.989173 7.0709737,14.514025 11.908883,10.451791 17.591023,9.6501686 23.096381,8.8735107 27.851121,10.878383 31.921877,15.28688 c 0.0075,0.008 0.07814,0.08485 0.07815,0.08481 0,0 0.07174,-0.07791 0.0785,-0.08518 z M 31.999995,9.0346841 C 23.108821,2.0563139 9.173445,3.8771735 2.7654623,14.365139 0.63782997,17.847443 -0.16127587,21.896122 0.02651237,25.91572 0.35225647,32.887996 3.3618992,38.982545 7.7826232,44.241923 13.735272,51.32382 22.341048,56.88893 31.811809,61.041841 c 0.01321,0.0052 0.122526,0.05325 0.188186,0.0825 0.05759,-0.02422 0.158424,-0.06968 0.189405,-0.08341 C 41.611362,56.888113 50.265068,51.322497 56.217369,44.241844 60.638403,38.982726 63.647737,32.887896 63.973484,25.91564 64.161285,21.896044 63.362187,17.847359 61.234535,14.365061 54.826551,3.8771618 40.891185,2.0562971 31.999995,9.0346685 Z"/>
  <path d="m 31.772621,35.431417 -4.047687,-2.006375 c -1.406911,2.051472 -2.43055,3.439869 -5.387325,2.629663 -2.320928,-0.635969 -3.007898,-3.179765 -3.096124,-5.31361 -0.120503,-2.914645 0.898478,-6.280891 4.379655,-6.100865 2.224464,0.114998 3.172265,1.426949 3.678778,2.606327 l 4.419518,-2.265625 c -2.176929,-4.153159 -7.27852,-5.565608 -11.602932,-4.408215 -4.601541,1.231588 -6.932203,5.464555 -6.850487,10.029634 0.08354,4.666419 2.32354,8.697398 7.13533,9.749453 2.346158,0.512952 4.900792,0.393719 7.073387,-0.695604 1.681372,-0.843034 3.5494,-2.470161 4.297887,-4.224783 z m 19.080533,0 -4.047679,-2.006375 c -1.406913,2.051472 -2.430554,3.439869 -5.387331,2.629663 -2.320924,-0.635969 -3.007911,-3.179765 -3.096124,-5.31361 -0.120516,-2.914645 0.898479,-6.280891 4.379655,-6.100865 2.224464,0.114998 3.172254,1.426949 3.678779,2.606327 l 4.419521,-2.265625 c -2.176939,-4.153159 -7.278534,-5.565608 -11.602931,-4.408215 -4.601549,1.231588 -6.932207,5.464555 -6.850495,10.029634 0.08353,4.666419 2.323544,8.697398 7.135337,9.749453 2.346155,0.512952 4.900793,0.393719 7.073384,-0.695604 1.681373,-0.843034 3.549397,-2.470161 4.297884,-4.224783 z"/>
</svg>
